<?xml version="1.0" encoding="UTF-8" standalone="no"?>
<!DOCTYPE svg PUBLIC "-//W3C//DTD SVG 1.1//EN"
 "http://www.w3.org/Graphics/SVG/1.1/DTD/svg11.dtd">
<!-- Generated by graphviz version 2.47.0 (20210316.0004)
 -->
<!-- Title: dependencies Pages: 1 -->
<svg width="975pt" height="284pt"
 viewBox="0.00 0.00 975.00 284.00" xmlns="http://www.w3.org/2000/svg" xmlns:xlink="http://www.w3.org/1999/xlink">
<g id="graph0" class="graph" transform="scale(1 1) rotate(0) translate(4 280)">
<title>dependencies</title>
<polygon fill="white" stroke="transparent" points="-4,4 -4,-280 971,-280 971,4 -4,4"/>
<text text-anchor="start" x="462.51" y="-42.4" font-family="Times-12" font-weight="bold" font-size="14.00">Legend</text>
<polygon fill="#ffffb3" stroke="transparent" points="249.5,-10 249.5,-30 269.5,-30 269.5,-10 249.5,-10"/>
<text text-anchor="start" x="273.13" y="-15.4" font-family="Times-12" font-size="14.00"> &#160;Declarations</text>
<polygon fill="#8dd3c7" stroke="transparent" points="362.5,-10 362.5,-30 382.5,-30 382.5,-10 362.5,-10"/>
<text text-anchor="start" x="386.23" y="-15.4" font-family="Times-12" font-size="14.00"> &#160;Module</text>
<polygon fill="#80b1d3" stroke="transparent" points="448.5,-10 448.5,-30 468.5,-30 468.5,-10 448.5,-10"/>
<text text-anchor="start" x="472.28" y="-15.4" font-family="Times-12" font-size="14.00"> &#160;Bootstrap</text>
<polygon fill="#fdb462" stroke="transparent" points="545.5,-10 545.5,-30 565.5,-30 565.5,-10 545.5,-10"/>
<text text-anchor="start" x="569.17" y="-15.4" font-family="Times-12" font-size="14.00"> &#160;Providers</text>
<polygon fill="#fb8072" stroke="transparent" points="641.5,-10 641.5,-30 661.5,-30 661.5,-10 641.5,-10"/>
<text text-anchor="start" x="665.23" y="-15.4" font-family="Times-12" font-size="14.00"> &#160;Exports</text>
<g id="clust1" class="cluster">
<title>cluster_EntryModule</title>
<polygon fill="none" stroke="black" stroke-dasharray="1,5" points="8,-70 8,-268 481,-268 481,-70 8,-70"/>
</g>
<g id="clust3" class="cluster">
<title>cluster_EntryModule_imports</title>
<polygon fill="none" stroke="black" points="16,-78 16,-130 473,-130 473,-78 16,-78"/>
</g>
<g id="clust4" class="cluster">
<title>cluster_EntryModule_exports</title>
<polygon fill="none" stroke="black" points="355,-208 355,-260 473,-260 473,-208 355,-208"/>
</g>
<g id="clust7" class="cluster">
<title>cluster_HelpCenterModule</title>
<polygon fill="none" stroke="black" stroke-dasharray="1,5" points="749,-70 749,-195 959,-195 959,-70 749,-70"/>
</g>
<g id="clust9" class="cluster">
<title>cluster_HelpCenterModule_imports</title>
<polygon fill="none" stroke="black" points="757,-78 757,-130 951,-130 951,-78 757,-78"/>
</g>
<g id="clust13" class="cluster">
<title>cluster_ProjectModule</title>
<polygon fill="none" stroke="black" stroke-dasharray="1,5" points="489,-143 489,-195 605,-195 605,-143 489,-143"/>
</g>
<g id="clust19" class="cluster">
<title>cluster_TagBuildModule</title>
<polygon fill="none" stroke="black" stroke-dasharray="1,5" points="613,-143 613,-195 741,-195 741,-143 613,-143"/>
</g>
<!-- EntryComponent -->
<g id="node1" class="node">
<title>EntryComponent</title>
<polygon fill="#8dd3c7" stroke="black" points="136.44,-122 133.44,-126 112.44,-126 109.44,-122 23.56,-122 23.56,-86 136.44,-86 136.44,-122"/>
<text text-anchor="middle" x="80" y="-99.8" font-family="Times,serif" font-size="14.00">EntryComponent</text>
</g>
<!-- EntryModule -->
<g id="node4" class="node">
<title>EntryModule</title>
<polygon fill="#8dd3c7" stroke="black" points="337.15,-187 334.15,-191 313.15,-191 310.15,-187 246.85,-187 246.85,-151 337.15,-151 337.15,-187"/>
<text text-anchor="middle" x="292" y="-164.8" font-family="Times,serif" font-size="14.00">EntryModule</text>
</g>
<!-- EntryComponent&#45;&gt;EntryModule -->
<g id="edge1" class="edge">
<title>EntryComponent&#45;&gt;EntryModule</title>
<path fill="none" stroke="black" d="M80,-122.11C80,-141.34 80,-169 80,-169 80,-169 236.78,-169 236.78,-169"/>
<polygon fill="black" stroke="black" points="236.78,-172.5 246.78,-169 236.78,-165.5 236.78,-172.5"/>
</g>
<!-- CommonModule -->
<g id="node2" class="node">
<title>CommonModule</title>
<polygon fill="#8dd3c7" stroke="black" points="265.67,-122 262.67,-126 241.67,-126 238.67,-122 154.33,-122 154.33,-86 265.67,-86 265.67,-122"/>
<text text-anchor="middle" x="210" y="-99.8" font-family="Times,serif" font-size="14.00">CommonModule</text>
</g>
<!-- CommonModule&#45;&gt;EntryModule -->
<g id="edge2" class="edge">
<title>CommonModule&#45;&gt;EntryModule</title>
<path fill="none" stroke="black" d="M250.51,-122.11C250.51,-122.11 250.51,-140.99 250.51,-140.99"/>
<polygon fill="black" stroke="black" points="247.01,-140.99 250.51,-150.99 254.01,-140.99 247.01,-140.99"/>
</g>
<!-- HelpCenterModule -->
<g id="node7" class="node">
<title>HelpCenterModule</title>
<polygon fill="#8dd3c7" stroke="black" points="881.08,-187 878.08,-191 857.08,-191 854.08,-187 756.92,-187 756.92,-151 881.08,-151 881.08,-187"/>
<text text-anchor="middle" x="819" y="-164.8" font-family="Times,serif" font-size="14.00">HelpCenterModule</text>
</g>
<!-- CommonModule&#45;&gt;HelpCenterModule -->
<g id="edge5" class="edge">
<title>CommonModule&#45;&gt;HelpCenterModule</title>
<path fill="none" stroke="black" d="M262,-122.06C262,-126.49 262,-130 262,-130 262,-130 759.75,-130 759.75,-130 759.75,-130 759.75,-140.87 759.75,-140.87"/>
<polygon fill="black" stroke="black" points="756.25,-140.87 759.75,-150.87 763.25,-140.87 756.25,-140.87"/>
</g>
<!-- ProjectModule -->
<g id="node8" class="node">
<title>ProjectModule</title>
<polygon fill="#8dd3c7" stroke="black" points="596.7,-187 593.7,-191 572.7,-191 569.7,-187 497.3,-187 497.3,-151 596.7,-151 596.7,-187"/>
<text text-anchor="middle" x="547" y="-164.8" font-family="Times,serif" font-size="14.00">ProjectModule</text>
</g>
<!-- CommonModule&#45;&gt;ProjectModule -->
<g id="edge9" class="edge">
<title>CommonModule&#45;&gt;ProjectModule</title>
<path fill="none" stroke="black" d="M254.34,-122.13C254.34,-132.71 254.34,-144 254.34,-144 254.34,-144 530.47,-144 530.47,-144 530.47,-144 530.47,-144.68 530.47,-144.68"/>
<polygon fill="black" stroke="black" points="526.97,-140.83 530.47,-150.83 533.97,-140.83 526.97,-140.83"/>
</g>
<!-- TagBuildModule -->
<g id="node9" class="node">
<title>TagBuildModule</title>
<polygon fill="#8dd3c7" stroke="black" points="733.44,-187 730.44,-191 709.44,-191 706.44,-187 620.56,-187 620.56,-151 733.44,-151 733.44,-187"/>
<text text-anchor="middle" x="677" y="-164.8" font-family="Times,serif" font-size="14.00">TagBuildModule</text>
</g>
<!-- CommonModule&#45;&gt;TagBuildModule -->
<g id="edge12" class="edge">
<title>CommonModule&#45;&gt;TagBuildModule</title>
<path fill="none" stroke="black" d="M258.17,-122.04C258.17,-129.75 258.17,-137 258.17,-137 258.17,-137 658.26,-137 658.26,-137 658.26,-137 658.26,-140.76 658.26,-140.76"/>
<polygon fill="black" stroke="black" points="654.76,-140.76 658.26,-150.76 661.76,-140.76 654.76,-140.76"/>
</g>
<!-- RouterModule.forChild(args) -->
<g id="node3" class="node">
<title>RouterModule.forChild(args)</title>
<polygon fill="#8dd3c7" stroke="black" points="464.73,-122 461.73,-126 440.73,-126 437.73,-122 283.27,-122 283.27,-86 464.73,-86 464.73,-122"/>
<text text-anchor="middle" x="374" y="-99.8" font-family="Times,serif" font-size="14.00">RouterModule.forChild(args)</text>
</g>
<!-- RouterModule.forChild(args)&#45;&gt;EntryModule -->
<g id="edge3" class="edge">
<title>RouterModule.forChild(args)&#45;&gt;EntryModule</title>
<path fill="none" stroke="black" d="M310.36,-122.11C310.36,-122.11 310.36,-140.99 310.36,-140.99"/>
<polygon fill="black" stroke="black" points="306.86,-140.99 310.36,-150.99 313.86,-140.99 306.86,-140.99"/>
</g>
<!-- RouterModule.forChild(args)&#45;&gt;HelpCenterModule -->
<g id="edge6" class="edge">
<title>RouterModule.forChild(args)&#45;&gt;HelpCenterModule</title>
<path fill="none" stroke="black" d="M465.09,-95C579.94,-95 762.54,-95 762.54,-95 762.54,-95 762.54,-140.71 762.54,-140.71"/>
<polygon fill="black" stroke="black" points="759.04,-140.71 762.54,-150.71 766.04,-140.71 759.04,-140.71"/>
</g>
<!-- RouterModule.forChild(args)&#45;&gt;ProjectModule -->
<g id="edge10" class="edge">
<title>RouterModule.forChild(args)&#45;&gt;ProjectModule</title>
<path fill="none" stroke="black" d="M464.88,-113C513.52,-113 563.53,-113 563.53,-113 563.53,-113 563.53,-140.97 563.53,-140.97"/>
<polygon fill="black" stroke="black" points="560.03,-140.97 563.53,-150.97 567.03,-140.97 560.03,-140.97"/>
</g>
<!-- RouterModule.forChild(args)&#45;&gt;TagBuildModule -->
<g id="edge13" class="edge">
<title>RouterModule.forChild(args)&#45;&gt;TagBuildModule</title>
<path fill="none" stroke="black" d="M464.91,-104C560.05,-104 695.74,-104 695.74,-104 695.74,-104 695.74,-140.89 695.74,-140.89"/>
<polygon fill="black" stroke="black" points="692.24,-140.89 695.74,-150.89 699.24,-140.89 692.24,-140.89"/>
</g>
<!-- RouterModule  -->
<g id="node5" class="node">
<title>RouterModule </title>
<polygon fill="#fb8072" stroke="black" points="464.65,-252 363.35,-252 363.35,-216 464.65,-216 464.65,-252"/>
<text text-anchor="middle" x="414" y="-229.8" font-family="Times,serif" font-size="14.00">RouterModule </text>
</g>
<!-- EntryModule&#45;&gt;RouterModule  -->
<g id="edge4" class="edge">
<title>EntryModule&#45;&gt;RouterModule </title>
<path fill="none" stroke="black" stroke-dasharray="5,2" d="M292,-187.11C292,-206.34 292,-234 292,-234 292,-234 353.32,-234 353.32,-234"/>
<polygon fill="black" stroke="black" points="353.32,-237.5 363.32,-234 353.32,-230.5 353.32,-237.5"/>
</g>
<!-- MarkdownModule.forRoot() -->
<g id="node6" class="node">
<title>MarkdownModule.forRoot()</title>
<polygon fill="#8dd3c7" stroke="black" points="942.85,-122 939.85,-126 918.85,-126 915.85,-122 765.15,-122 765.15,-86 942.85,-86 942.85,-122"/>
<text text-anchor="middle" x="854" y="-99.8" font-family="Times,serif" font-size="14.00">MarkdownModule.forRoot()</text>
</g>
<!-- MarkdownModule.forRoot()&#45;&gt;HelpCenterModule -->
<g id="edge7" class="edge">
<title>MarkdownModule.forRoot()&#45;&gt;HelpCenterModule</title>
<path fill="none" stroke="black" d="M823.18,-122.11C823.18,-122.11 823.18,-140.99 823.18,-140.99"/>
<polygon fill="black" stroke="black" points="819.68,-140.99 823.18,-150.99 826.68,-140.99 819.68,-140.99"/>
</g>
<!-- HelpCenterModule&#45;&gt;RouterModule  -->
<g id="edge8" class="edge">
<title>HelpCenterModule&#45;&gt;RouterModule </title>
<path fill="none" stroke="black" stroke-dasharray="5,2" d="M819,-187.29C819,-209.21 819,-243 819,-243 819,-243 474.88,-243 474.88,-243"/>
<polygon fill="black" stroke="black" points="474.88,-239.5 464.88,-243 474.88,-246.5 474.88,-239.5"/>
</g>
<!-- ProjectModule&#45;&gt;RouterModule  -->
<g id="edge11" class="edge">
<title>ProjectModule&#45;&gt;RouterModule </title>
<path fill="none" stroke="black" stroke-dasharray="5,2" d="M547,-187.03C547,-203.4 547,-225 547,-225 547,-225 474.66,-225 474.66,-225"/>
<polygon fill="black" stroke="black" points="474.66,-221.5 464.66,-225 474.66,-228.5 474.66,-221.5"/>
</g>
<!-- TagBuildModule&#45;&gt;RouterModule  -->
<g id="edge14" class="edge">
<title>TagBuildModule&#45;&gt;RouterModule </title>
<path fill="none" stroke="black" stroke-dasharray="5,2" d="M677,-187.11C677,-206.34 677,-234 677,-234 677,-234 474.71,-234 474.71,-234"/>
<polygon fill="black" stroke="black" points="474.71,-230.5 464.71,-234 474.71,-237.5 474.71,-230.5"/>
</g>
</g>
</svg>
